<svg width="20" height="20" viewBox="0 0 20 20" fill="none" xmlns="http://www.w3.org/2000/svg">
<g clip-path="url(#clip0_6_598)">
<path d="M9.16667 12.5001H10.8333C11.2754 12.5001 11.6993 12.3245 12.0118 12.0119C12.3244 11.6994 12.5 11.2754 12.5 10.8334C12.5 10.3914 12.3244 9.96746 12.0118 9.6549C11.6993 9.34234 11.2754 9.16675 10.8333 9.16675H8.33333C7.83333 9.16675 7.41667 9.33342 7.16667 9.66675L2.5 14.1667" stroke="#526FFF" stroke-width="1.66667" stroke-linecap="round" stroke-linejoin="round"/>
<path d="M5.83325 17.5L7.16659 16.3333C7.41659 16 7.83325 15.8333 8.33325 15.8333H11.6666C12.5833 15.8333 13.4166 15.5 13.9999 14.8333L17.8333 11.1666C18.1548 10.8628 18.3425 10.4436 18.355 10.0013C18.3675 9.55902 18.2038 9.12989 17.8999 8.80832C17.596 8.48674 17.1768 8.29906 16.7346 8.28656C16.2923 8.27405 15.8632 8.43776 15.5416 8.74165L12.0416 11.9916" stroke="#526FFF" stroke-width="1.66667" stroke-linecap="round" stroke-linejoin="round"/>
<path d="M1.66675 13.3333L6.66675 18.3333" stroke="#526FFF" stroke-width="1.66667" stroke-linecap="round" stroke-linejoin="round"/>
<path d="M13.3334 9.91658C14.6681 9.91658 15.7501 8.83461 15.7501 7.49992C15.7501 6.16523 14.6681 5.08325 13.3334 5.08325C11.9987 5.08325 10.9167 6.16523 10.9167 7.49992C10.9167 8.83461 11.9987 9.91658 13.3334 9.91658Z" stroke="#526FFF" stroke-width="1.66667" stroke-linecap="round" stroke-linejoin="round"/>
<path d="M5 6.66675C6.38071 6.66675 7.5 5.54746 7.5 4.16675C7.5 2.78604 6.38071 1.66675 5 1.66675C3.61929 1.66675 2.5 2.78604 2.5 4.16675C2.5 5.54746 3.61929 6.66675 5 6.66675Z" stroke="#526FFF" stroke-width="1.66667" stroke-linecap="round" stroke-linejoin="round"/>
</g>
<defs>
<clipPath id="clip0_6_598">
<rect width="20" height="20" fill="white"/>
</clipPath>
</defs>
</svg>
