<svg width="20" height="20" viewBox="0 0 20 20" fill="none" xmlns="http://www.w3.org/2000/svg">
<g clip-path="url(#clip0_6_527)">
<path d="M15 16.6666C15 15.3405 14.4732 14.0688 13.5355 13.1311C12.5979 12.1934 11.3261 11.6666 10 11.6666C8.67392 11.6666 7.40215 12.1934 6.46447 13.1311C5.52678 14.0688 5 15.3405 5 16.6666" stroke="#777A8C" stroke-width="1.66667" stroke-linecap="round" stroke-linejoin="round"/>
<path d="M10.0001 11.6667C11.841 11.6667 13.3334 10.1743 13.3334 8.33333C13.3334 6.49238 11.841 5 10.0001 5C8.15913 5 6.66675 6.49238 6.66675 8.33333C6.66675 10.1743 8.15913 11.6667 10.0001 11.6667Z" stroke="#777A8C" stroke-width="1.66667" stroke-linecap="round" stroke-linejoin="round"/>
<path d="M10.0001 18.3333C14.6025 18.3333 18.3334 14.6023 18.3334 9.99996C18.3334 5.39759 14.6025 1.66663 10.0001 1.66663C5.39771 1.66663 1.66675 5.39759 1.66675 9.99996C1.66675 14.6023 5.39771 18.3333 10.0001 18.3333Z" stroke="#777A8C" stroke-width="1.66667" stroke-linecap="round" stroke-linejoin="round"/>
</g>
<defs>
<clipPath id="clip0_6_527">
<rect width="20" height="20" fill="white"/>
</clipPath>
</defs>
</svg>
