<svg width="19" height="19" viewBox="0 0 19 19" fill="none" xmlns="http://www.w3.org/2000/svg">
<path d="M12.5816 12.5816C12.1769 12.9862 11.6965 13.3072 11.1677 13.5262C10.639 13.7452 10.0723 13.858 9.50004 13.858C8.92775 13.858 8.36106 13.7452 7.83234 13.5262C7.30361 13.3072 6.8232 12.9862 6.41853 12.5816M18.2158 9.50004C18.2158 10.6446 17.9904 11.778 17.5524 12.8354C17.1144 13.8929 16.4724 14.8537 15.663 15.663C14.8537 16.4724 13.8929 17.1144 12.8354 17.5524C11.778 17.9904 10.6446 18.2158 9.50004 18.2158C8.35547 18.2158 7.2221 17.9904 6.16466 17.5524C5.10721 17.1144 4.14639 16.4724 3.33706 15.663C2.52772 14.8537 1.88572 13.8929 1.44771 12.8354C1.0097 11.778 0.784263 10.6446 0.784263 9.50004C0.784263 7.18847 1.70253 4.97158 3.33706 3.33706C4.97158 1.70253 7.18847 0.784263 9.50004 0.784263C11.8116 0.784263 14.0285 1.70253 15.663 3.33706C17.2976 4.97158 18.2158 7.18847 18.2158 9.50004ZM7.3211 7.3211C7.3211 7.72202 7.1584 8.04741 6.95794 8.04741C6.75748 8.04741 6.59478 7.72202 6.59478 7.3211C6.59478 6.92017 6.75748 6.59478 6.95794 6.59478C7.1584 6.59478 7.3211 6.92017 7.3211 7.3211ZM6.95794 7.3211H6.96569V7.33562H6.95794V7.3211ZM12.4053 7.3211C12.4053 7.72202 12.2426 8.04741 12.0421 8.04741C11.8417 8.04741 11.679 7.72202 11.679 7.3211C11.679 6.92017 11.8417 6.59478 12.0421 6.59478C12.2426 6.59478 12.4053 6.92017 12.4053 7.3211ZM12.0421 7.3211H12.0499V7.33562H12.0421V7.3211Z" stroke="#777A8C" stroke-width="1.5" stroke-linecap="round" stroke-linejoin="round"/>
</svg>
